<?xml version="1.0" encoding="UTF-8"?>
<svg width="24px" height="24px" viewBox="0 0 24 24" version="1.1" xmlns="http://www.w3.org/2000/svg" xmlns:xlink="http://www.w3.org/1999/xlink">
    <!-- Generator: Sketch 55.2 (78181) - https://sketchapp.com -->
    <title>social-youtube</title>
    <desc>Created with Sketch.</desc>
    <g id="social-youtube" stroke="none" stroke-width="1" fill="none" fill-rule="evenodd">
        <path d="M19.0155076,3.6 L4.98449244,3.6 C2.23163073,3.6 0,5.8391196 0,8.60121931 L0,15.6387807 C0,18.4008804 2.23163073,20.64 4.98449244,20.64 L19.0155076,20.64 C21.7683693,20.64 24,18.4008804 24,15.6387807 L24,8.60121931 C24,5.8391196 21.7683693,3.6 19.0155076,3.6 Z M15.6445301,12.4624026 L9.08176772,15.6029472 C8.90689608,15.6866282 8.70490086,15.5587039 8.70490086,15.3643363 L8.70490086,8.88694656 C8.70490086,8.68981043 8.91220626,8.56204282 9.08744233,8.65115629 L15.6502047,11.9880013 C15.8453279,12.0871962 15.8419439,12.3679611 15.6445301,12.4624026 Z" id="Shape" fill="#FF0000" fill-rule="nonzero"></path>
    </g>
</svg>