<?xml version="1.0" encoding="UTF-8"?>
<svg width="24px" height="24px" viewBox="0 0 24 24" version="1.1" xmlns="http://www.w3.org/2000/svg" xmlns:xlink="http://www.w3.org/1999/xlink">
    <!-- Generator: Sketch 55.2 (78181) - https://sketchapp.com -->
    <title>social-facebook</title>
    <desc>Created with Sketch.</desc>
    <g id="social-facebook" stroke="none" stroke-width="1" fill="none" fill-rule="evenodd">
        <path d="M15.6631307,24 L15.6631307,15.2419436 L18.6352343,15.2419436 L19.0800601,11.8288662 L15.6631307,11.8288662 L15.6631307,9.64971806 C15.6631307,8.66111578 15.941826,7.98771446 17.3741184,7.98771446 L19.2,7.98733053 L19.2,4.93437313 C18.8848181,4.89252549 17.801089,4.8 16.5380323,4.8 C13.9032354,4.8 12.1002549,6.39059388 12.1002549,9.31224955 L12.1002549,11.8288662 L9.12,11.8288662 L9.12,15.2419436 L12.1002549,15.2419436 L12.1002549,24 L3.6,24 C1.6117749,24 0,22.3882251 0,20.4 L0,3.6 C0,1.6117749 1.6117749,0 3.6,0 L20.4,0 C22.3882251,0 24,1.6117749 24,3.6 L24,20.4 C24,22.3882251 22.3882251,24 20.4,24 L15.6631307,24 Z" id="Shape" fill="#3B5998"></path>
    </g>
</svg>